<svg width="27" height="24" viewBox="0 0 27 24" fill="none" xmlns="http://www.w3.org/2000/svg">
<path fill-rule="evenodd" clip-rule="evenodd" d="M6.76312 2.95652H25.8746C26.5921 2.95652 27.1263 3.60968 26.9739 4.30072L24.8544 13.9094C24.742 14.4191 24.2843 14.7826 23.7551 14.7826H9.11109L9.55125 17H22.7769C23.4946 17 24.0288 17.6533 23.8762 18.3443L23.8277 18.5641C24.3959 19.1021 24.75 19.8578 24.75 20.6957C24.75 22.3285 23.4069 23.6522 21.75 23.6522C20.0932 23.6522 18.75 22.3285 18.75 20.6957C18.7495 20.1765 18.8883 19.6665 19.1524 19.2174H12.3477C12.6118 19.6665 12.7506 20.1765 12.75 20.6957C12.75 22.3285 11.4068 23.6522 9.75 23.6522C8.09315 23.6522 6.75 22.3285 6.75 20.6957C6.75 19.9012 7.06856 19.1805 7.58597 18.6492L4.32375 2.21739H0.5625C0.251859 2.21739 0 1.96918 0 1.66304V0.554348C0 0.248209 0.251859 0 0.5625 0H5.25C5.78803 0 6.25078 0.375478 6.35409 0.895826L6.76312 2.95652ZM8.625 20.6957C8.625 21.307 9.12966 21.8043 9.75 21.8043C10.3703 21.8043 10.875 21.307 10.875 20.6957C10.875 20.0843 10.3703 19.587 9.75 19.587C9.12966 19.587 8.625 20.0843 8.625 20.6957ZM21.75 21.8043C21.1297 21.8043 20.625 21.307 20.625 20.6957C20.625 20.0843 21.1297 19.587 21.75 19.587C22.3703 19.587 22.875 20.0843 22.875 20.6957C22.875 21.307 22.3703 21.8043 21.75 21.8043ZM8.67093 12.5652H22.8487L24.479 5.17391H7.20328L8.67093 12.5652Z" fill="#36424E"/>
</svg>
